<svg width="279" height="210" viewBox="0 0 279 203" fill="none" xmlns="http://www.w3.org/2000/svg">
<path d="M192.68 12.1797C192.09 12.1797 191.51 12.2197 190.94 12.2997C190.38 12.2197 189.81 12.1797 189.23 12.1797C188.65 12.1797 188.08 12.2197 187.52 12.2997C186.99 12.2197 186.45 12.1797 185.9 12.1797C179.88 12.1797 174.98 17.0797 174.98 23.0997C174.98 29.1197 179.88 34.0197 185.9 34.0197C186.45 34.0197 186.99 33.9797 187.52 33.8997C188.08 33.9797 188.65 34.0197 189.23 34.0197C189.81 34.0197 190.38 33.9797 190.94 33.8997C191.51 33.9797 192.09 34.0197 192.68 34.0197C199.13 34.0197 204.38 29.1197 204.38 23.0997C204.38 17.0797 199.13 12.1797 192.68 12.1797ZM176.36 23.0997C176.36 18.9597 179.01 15.4297 182.7 14.1197C179.7 16.0897 177.72 19.3797 177.72 23.0997C177.72 26.8197 179.69 30.1097 182.7 32.0797C179.01 30.7597 176.36 27.2297 176.36 23.0997ZM179.11 23.0997C179.11 18.8197 182.12 15.1797 186.26 13.9797C183.09 15.9297 180.99 19.2897 180.99 23.0997C180.99 26.9097 183.09 30.2597 186.26 32.2197C182.13 31.0197 179.11 27.3897 179.11 23.0997ZM189.16 32.0597C185.2 30.7297 182.37 27.2097 182.37 23.0997C182.37 18.9897 185.2 15.4697 189.16 14.1397C192.82 15.4697 195.44 18.9897 195.44 23.0997C195.44 27.2097 192.82 30.7297 189.16 32.0597ZM191.69 32.3497C194.77 30.4197 196.82 26.9897 196.82 23.0997C196.82 19.2097 194.77 15.7797 191.69 13.8497C196.09 14.8897 199.35 18.6397 199.35 23.0997C199.35 27.5597 196.08 31.3097 191.69 32.3497ZM195.43 32.2897C198.62 30.3497 200.74 26.9497 200.74 23.0997C200.74 19.2497 198.62 15.8497 195.44 13.9097C199.8 15.0197 203.01 18.7197 203.01 23.0997C203.01 27.4797 199.8 31.1797 195.43 32.2897Z" fill="#5E6E63"/>
<path d="M80.91 175.86H14.73C14.4428 175.86 14.21 176.093 14.21 176.38V177.34C14.21 177.628 14.4428 177.86 14.73 177.86H80.91C81.1972 177.86 81.43 177.628 81.43 177.34V176.38C81.43 176.093 81.1972 175.86 80.91 175.86Z" fill="#5E6E63"/>
<path d="M199.18 179.15H170.52C170.4 179.15 170.29 179 170.29 178.81V178.19C170.29 178 170.39 177.85 170.52 177.85H199.18C199.3 177.85 199.41 178 199.41 178.19V178.81C199.41 179 199.31 179.15 199.18 179.15Z" fill="#5E6E63"/>
<path d="M207.16 185.9H170.58C170.42 185.9 170.29 185.75 170.29 185.56V184.94C170.29 184.75 170.42 184.6 170.58 184.6H207.16C207.32 184.6 207.45 184.75 207.45 184.94V185.56C207.45 185.75 207.32 185.9 207.16 185.9Z" fill="#5E6E63"/>
<path d="M170.63 191.34H213.26C213.45 191.34 213.6 191.49 213.6 191.68V192.3C213.6 192.49 213.45 192.64 213.26 192.64H170.63C170.44 192.64 170.29 192.49 170.29 192.3V191.68C170.29 191.49 170.44 191.34 170.63 191.34Z" fill="#5E6E63"/>
<path d="M263.45 77.9196L254.99 82.1296C254.8 82.2296 254.59 82.0096 254.7 81.8196L260.99 70.9196C261.05 70.8096 261.01 70.6796 260.91 70.6196L247.14 62.6696C247.03 62.6096 246.9 62.6496 246.84 62.7496L240.52 73.6996C240.41 73.8896 240.11 73.8096 240.11 73.5896V61.0696C240.11 60.9496 240.01 60.8496 239.89 60.8496H223.99C223.87 60.8496 223.77 60.9496 223.77 61.0696V107.56C223.77 107.68 223.87 107.78 223.99 107.78H240.06C240.06 107.78 240.13 107.78 240.16 107.76L270.73 92.5396C270.84 92.4896 270.88 92.3496 270.83 92.2496L263.75 78.0096C263.7 77.8996 263.56 77.8596 263.46 77.9096L263.45 77.9196ZM240.14 76.5896L247.25 64.2696C247.31 64.1596 247.44 64.1296 247.55 64.1896L259.39 71.0296C259.5 71.0896 259.53 71.2196 259.47 71.3296L252.53 83.3396L251.52 85.0796L240.51 104.15C240.4 104.34 240.1 104.26 240.1 104.04V76.6796C240.1 76.6796 240.11 76.5996 240.13 76.5696L240.14 76.5896ZM224.88 106.45V62.1896C224.88 62.0696 224.98 61.9696 225.1 61.9696H238.78C238.9 61.9696 239 62.0696 239 62.1896V106.45C239 106.57 238.9 106.67 238.78 106.67H225.1C224.98 106.67 224.88 106.57 224.88 106.45ZM240.59 106.27L253.3 84.2496C253.3 84.2496 253.35 84.1796 253.39 84.1596L262.95 79.3996C263.06 79.3496 263.19 79.3996 263.24 79.4996L269.33 91.7396C269.38 91.8496 269.33 91.9796 269.23 92.0296L240.59 106.28V106.25V106.27Z" fill="#5E6E63"/>
<path d="M236.92 105.519C237.422 105.519 237.83 105.112 237.83 104.609C237.83 104.107 237.422 103.699 236.92 103.699C236.417 103.699 236.01 104.107 236.01 104.609C236.01 105.112 236.417 105.519 236.92 105.519Z" fill="#5E6E63"/>
<path d="M186.7 88.7601C186.98 89.4601 187.53 91.0501 187.92 92.1801C189.6 96.8801 191.68 102.45 192.29 103.97C193.3 106.44 193.97 106.75 195.01 107.06C195.53 107.21 195.8 107.4 195.8 107.61C195.8 107.82 195.49 108.07 194.79 108.07C194.03 108.07 191.73 107.95 190.79 107.95C189.78 107.95 188.59 108.01 187.8 108.01C187.19 108.01 186.82 107.83 186.82 107.55C186.82 107.4 187.03 107.15 187.61 107.03C188.86 106.72 188.89 106.24 188.83 105.75C188.77 104.96 188.13 103.24 187.42 101.29C187.39 101.17 187.05 100.83 186.72 100.83C183.45 100.8 181.98 100.89 181.56 100.92C181.47 100.92 181.28 101.13 181.22 101.23C180.24 103.64 179.91 105.05 179.91 105.66C179.91 106.27 180.22 106.7 181.35 107C181.96 107.15 182.24 107.34 182.24 107.61C182.24 107.85 181.84 108.01 181.32 108.01C180.77 108.01 180.01 107.95 178.88 107.95C177.75 107.95 176.31 108.07 175.86 108.07C175.16 108.07 174.97 107.89 174.97 107.7C174.97 107.49 175.09 107.27 175.73 107.09C177.29 106.66 177.62 106.17 178.51 104.37C179.24 102.9 182.54 94.2001 183.8 91.2301C183.86 91.0801 183.98 90.7701 184.01 90.6201C184.04 90.5301 184.13 90.3801 184.25 90.1901C184.56 89.7901 185.41 88.8101 185.63 88.4801C185.81 88.2001 186.03 88.0801 186.18 88.0801C186.33 88.0801 186.46 88.1401 186.7 88.7501V88.7601ZM186.76 99.0901C186.3 97.6801 184.96 93.9901 184.53 92.9801C184.47 92.7701 184.29 92.8301 184.19 93.0701C183.64 94.5401 182.17 98.3901 181.99 99.1201C181.96 99.2701 182.11 99.4301 182.23 99.4301C183.39 99.4001 185.65 99.3701 186.63 99.3701C186.66 99.3701 186.78 99.2501 186.75 99.0901H186.76Z" fill="#5E6E63"/>
<path d="M202.91 107.81C201.76 107.81 200.73 107.56 199.82 107.07C198.9 106.57 198.18 105.88 197.65 105C197.12 104.11 196.86 103.1 196.86 101.95C196.86 100.8 197.12 99.7899 197.65 98.9099C198.18 98.0299 198.9 97.3499 199.82 96.8599C200.74 96.3699 201.77 96.1299 202.91 96.1299C203.98 96.1299 204.94 96.3499 205.8 96.7899C206.66 97.2299 207.34 97.8899 207.84 98.7599C208.34 99.6299 208.6 100.69 208.6 101.95C208.6 103.21 208.35 104.26 207.84 105.14C207.33 106.02 206.66 106.68 205.8 107.13C204.94 107.59 203.98 107.82 202.91 107.82V107.81ZM203.21 112.83C202.11 112.83 201.06 112.67 200.05 112.35C199.04 112.03 198.22 111.57 197.6 110.98L198.43 109.74C199 110.24 199.69 110.65 200.53 110.94C201.36 111.24 202.24 111.39 203.18 111.39C204.71 111.39 205.83 111.03 206.55 110.32C207.27 109.61 207.63 108.51 207.63 107.01V104.01L207.86 101.95L207.7 99.8899V96.2499H209.26V106.81C209.26 108.89 208.75 110.41 207.74 111.38C206.72 112.35 205.22 112.84 203.24 112.84L203.21 112.83ZM203.07 106.37C203.96 106.37 204.74 106.18 205.43 105.81C206.12 105.44 206.66 104.92 207.06 104.25C207.46 103.59 207.66 102.82 207.66 101.95C207.66 101.08 207.46 100.32 207.06 99.6599C206.66 98.9999 206.12 98.4899 205.43 98.1099C204.74 97.7399 203.96 97.5499 203.07 97.5499C202.18 97.5499 201.42 97.7399 200.72 98.1099C200.02 98.4799 199.48 98.9999 199.09 99.6599C198.7 100.32 198.51 101.08 198.51 101.95C198.51 102.82 198.7 103.59 199.09 104.25C199.48 104.91 200.02 105.43 200.72 105.81C201.41 106.18 202.2 106.37 203.07 106.37Z" fill="#5E6E63"/>
<path d="M35.5902 14.7695C34.8802 14.7695 34.1702 14.8195 33.4902 14.9195C32.8102 14.8195 32.1202 14.7695 31.4202 14.7695C30.7202 14.7695 30.0302 14.8195 29.3602 14.9195C28.7202 14.8195 28.0702 14.7695 27.4002 14.7695C20.1302 14.7695 14.2202 20.6795 14.2202 27.9495C14.2202 35.2195 20.1302 41.1295 27.4002 41.1295C28.0702 41.1295 28.7202 41.0795 29.3602 40.9795C30.0302 41.0795 30.7202 41.1295 31.4202 41.1295C32.1202 41.1295 32.8102 41.0795 33.4902 40.9795C34.1802 41.0795 34.8802 41.1295 35.5902 41.1295C43.3802 41.1295 49.7202 35.2195 49.7202 27.9495C49.7202 20.6795 43.3802 14.7695 35.5902 14.7695ZM15.8802 27.9495C15.8802 22.9495 19.0802 18.6895 23.5402 17.0995C19.9102 19.4795 17.5302 23.4495 17.5302 27.9495C17.5302 32.4495 19.9102 36.4195 23.5402 38.7995C19.0802 37.2095 15.8802 32.9495 15.8802 27.9495ZM19.2002 27.9495C19.2002 22.7795 22.8402 18.3895 27.8302 16.9395C24.0002 19.2995 21.4702 23.3495 21.4702 27.9495C21.4702 32.5495 24.0002 36.5995 27.8302 38.9595C22.8402 37.5095 19.2002 33.1195 19.2002 27.9495ZM31.3302 38.7695C26.5502 37.1595 23.1302 32.9195 23.1302 27.9495C23.1302 22.9795 26.5502 18.7395 31.3302 17.1295C35.7502 18.7395 38.9102 22.9795 38.9102 27.9495C38.9102 32.9195 35.7502 37.1595 31.3302 38.7695ZM34.3902 39.1195C38.1102 36.7895 40.5802 32.6495 40.5802 27.9495C40.5802 23.2495 38.1102 19.1095 34.3902 16.7795C39.7002 18.0295 43.6402 22.5695 43.6402 27.9495C43.6402 33.3295 39.7002 37.8695 34.3902 39.1195ZM38.9002 39.0495C42.7502 36.7095 45.3102 32.6095 45.3102 27.9495C45.3102 23.2895 42.7602 19.1995 38.9102 16.8495C44.1802 18.1895 48.0502 22.6595 48.0502 27.9495C48.0502 33.2395 44.1702 37.7095 38.9002 39.0495Z" fill="#5E6E63"/>
<path d="M80.88 164.74H14.76C14.4562 164.74 14.21 164.986 14.21 165.29V166.19C14.21 166.494 14.4562 166.74 14.76 166.74H80.88C81.1837 166.74 81.43 166.494 81.43 166.19V165.29C81.43 164.986 81.1837 164.74 80.88 164.74Z" fill="#5E6E63"/>
<path d="M258.43 142.72C257.75 142.72 257.08 142.77 256.43 142.86C255.79 142.77 255.13 142.72 254.46 142.72C253.79 142.72 253.13 142.77 252.49 142.86C251.88 142.77 251.26 142.72 250.62 142.72C243.69 142.72 238.06 148.36 238.06 155.28C238.06 162.2 243.7 167.84 250.62 167.84C251.25 167.84 251.88 167.79 252.49 167.7C253.13 167.79 253.79 167.84 254.46 167.84C255.13 167.84 255.79 167.79 256.43 167.7C257.08 167.79 257.75 167.84 258.43 167.84C265.85 167.84 271.89 162.2 271.89 155.28C271.89 148.36 265.85 142.72 258.43 142.72ZM239.65 155.28C239.65 150.52 242.7 146.45 246.95 144.94C243.49 147.21 241.22 151 241.22 155.28C241.22 159.56 243.49 163.35 246.95 165.62C242.7 164.11 239.65 160.04 239.65 155.28ZM242.81 155.28C242.81 150.35 246.28 146.17 251.03 144.79C247.38 147.04 244.97 150.9 244.97 155.28C244.97 159.66 247.38 163.52 251.03 165.77C246.27 164.39 242.8 160.21 242.8 155.28H242.81ZM254.37 165.59C249.82 164.05 246.56 160.01 246.56 155.28C246.56 150.55 249.82 146.5 254.37 144.97C258.58 146.51 261.59 150.55 261.59 155.28C261.59 160.01 258.58 164.06 254.37 165.59ZM257.28 165.92C260.82 163.7 263.18 159.76 263.18 155.28C263.18 150.8 260.82 146.86 257.28 144.63C262.34 145.82 266.1 150.14 266.1 155.28C266.1 160.42 262.34 164.73 257.28 165.92ZM261.58 165.85C265.25 163.62 267.69 159.71 267.69 155.27C267.69 150.83 265.26 146.93 261.59 144.69C266.61 145.97 270.3 150.23 270.3 155.27C270.3 160.31 266.6 164.57 261.58 165.85Z" fill="#5E6E63"/>
<path d="M277.45 202.58H163.86C163.29 202.58 162.82 202.11 162.82 201.54V136.63C162.82 136.06 163.29 135.59 163.86 135.59H277.45C278.02 135.59 278.49 136.06 278.49 136.63V201.54C278.49 202.11 278.02 202.58 277.45 202.58ZM165.86 200.58H275.45C276.02 200.58 276.49 200.11 276.49 199.54V138.63C276.49 138.06 276.02 137.59 275.45 137.59H165.86C165.29 137.59 164.82 138.06 164.82 138.63V199.54C164.82 200.11 165.29 200.58 165.86 200.58Z" fill="#5E6E63"/>
<path d="M278.6 121.59H162.8V0.139648H278.6V121.6V121.59ZM165.3 119.09H276.1V2.63965H165.3V119.1V119.09Z" fill="#5E6E63"/>
<path d="M148.27 202.08H0.94C0.42 202.08 0 201.66 0 201.14V0.94C0 0.42 0.42 0 0.94 0H148.28C148.8 0 149.22 0.42 149.22 0.94V201.15C149.22 201.67 148.8 202.09 148.28 202.09L148.27 202.08ZM3.93 199.08H145.27C145.79 199.08 146.21 198.66 146.21 198.14V3.94C146.21 3.42 145.79 3 145.27 3H3.94C3.42 3 3 3.42 3 3.94V198.15C3 198.67 3.42 199.09 3.94 199.09L3.93 199.08Z" fill="#5E6E63"/>
</svg>
