<svg width="272" height="210" viewBox="0 0 272 209" fill="none" xmlns="http://www.w3.org/2000/svg">
<path d="M117.1 104.95C116.909 104.95 116.718 104.93 116.537 104.88C110.371 103.223 92.5549 102.188 75.3314 101.194C60.3475 100.32 46.1871 99.5069 40.0911 98.3118C38.6148 98.0206 37.5503 96.715 37.5503 95.1985L37.48 30.0607C37.48 29.6088 37.6808 29.1971 38.0223 28.9159C38.3638 28.6347 38.8157 28.5342 39.2475 28.6347C45.7452 30.0708 61.0806 30.9244 75.9139 31.7379C93.0871 32.692 110.843 33.6661 117.431 35.6144C118.978 36.0764 120.052 37.5326 120.032 39.1595L119.239 102.831C119.239 103.504 118.917 104.117 118.385 104.528C118.003 104.81 117.562 104.96 117.1 104.96V104.95ZM39.4383 30.6533L39.5086 95.1784C39.5086 95.7609 39.9204 96.2731 40.4727 96.3735C46.4382 97.5385 60.5283 98.362 75.4519 99.2257C92.7758 100.23 110.682 101.274 117.049 102.972C117.11 102.992 117.17 102.972 117.22 102.942C117.25 102.911 117.3 102.861 117.3 102.781L118.094 39.1093C118.094 38.3561 117.612 37.6732 116.899 37.4623C110.532 35.5743 92.8863 34.6001 75.8235 33.6561C60.6789 32.8225 46.3578 32.0291 39.4484 30.6332L39.4383 30.6533Z" fill="#5E6E63"/>
<path d="M119.058 132.035C118.867 132.035 118.676 131.985 118.505 131.864C116.095 130.217 95.7082 129.263 77.7215 128.43C53.5886 127.305 38.7352 126.492 35.873 124.694C35.4211 124.403 35.2805 123.8 35.5717 123.348C35.863 122.896 36.4655 122.756 36.9175 123.047C39.5487 124.704 59.8754 125.648 77.8119 126.492C102.025 127.626 116.919 128.44 119.6 130.268C120.042 130.569 120.162 131.182 119.861 131.623C119.67 131.905 119.369 132.045 119.058 132.045V132.035Z" fill="#5E6E63"/>
<path d="M119.058 154.662C118.857 154.662 118.656 154.602 118.475 154.471C116.276 152.844 94.9447 151.85 77.8016 151.057C53.6184 149.932 38.7349 149.118 35.8828 147.321C35.4309 147.03 35.2903 146.427 35.5815 145.975C35.8727 145.523 36.4753 145.383 36.9272 145.674C39.5484 147.331 59.9253 148.275 77.902 149.108C102.206 150.243 117.149 151.057 119.64 152.905C120.072 153.226 120.162 153.839 119.841 154.27C119.65 154.532 119.359 154.662 119.058 154.662Z" fill="#5E6E63"/>
<path d="M119.058 177.298C118.908 177.298 118.757 177.268 118.616 177.188C115.332 175.49 95.2065 174.546 77.4508 173.703C53.5086 172.578 38.7658 171.754 35.8935 169.947C35.4416 169.656 35.301 169.053 35.5922 168.601C35.8835 168.149 36.486 168.009 36.938 168.3C39.5792 169.967 59.7553 170.921 77.5512 171.754C97.2452 172.688 115.855 173.562 119.52 175.45C120.002 175.701 120.193 176.284 119.942 176.766C119.771 177.107 119.43 177.298 119.078 177.298H119.058Z" fill="#5E6E63"/>
<path d="M153.455 82.1827C153.133 82.1827 152.812 82.022 152.631 81.7307C152.34 81.2788 152.481 80.6762 152.933 80.385C155.785 78.5873 170.648 77.7538 194.781 76.6089C212.758 75.7552 233.145 74.7911 235.555 73.1441C235.997 72.8428 236.609 72.9533 236.911 73.3952C237.212 73.8371 237.102 74.4497 236.66 74.751C233.988 76.5788 219.095 77.4123 194.881 78.5572C176.945 79.4108 156.608 80.3749 153.987 82.032C153.826 82.1324 153.646 82.1827 153.465 82.1827H153.455Z" fill="#5E6E63"/>
<path d="M153.455 104.819C153.133 104.819 152.812 104.658 152.631 104.367C152.34 103.915 152.481 103.313 152.933 103.021C155.785 101.224 170.648 100.39 194.781 99.2554C212.758 98.4017 233.145 97.4376 235.555 95.7906C235.997 95.4893 236.609 95.5998 236.911 96.0417C237.212 96.4835 237.102 97.0962 236.66 97.3975C233.978 99.2252 219.085 100.059 194.871 101.204C176.935 102.057 156.598 103.021 153.977 104.679C153.816 104.779 153.636 104.829 153.455 104.829V104.819Z" fill="#5E6E63"/>
<path d="M153.435 59.5564C153.113 59.5564 152.792 59.3957 152.611 59.1045C152.32 58.6526 152.461 58.05 152.913 57.7587C155.765 55.9611 170.648 55.1376 194.831 53.9927C211.974 53.1792 233.295 52.1749 235.505 50.548C235.937 50.2266 236.549 50.317 236.871 50.7488C237.192 51.1807 237.102 51.7933 236.67 52.1147C234.169 53.9626 219.235 54.7961 194.932 55.941C176.955 56.7946 156.588 57.7587 153.967 59.4058C153.806 59.5062 153.626 59.5564 153.445 59.5564H153.435Z" fill="#5E6E63"/>
<path d="M153.424 36.9195C153.103 36.9195 152.781 36.7588 152.601 36.4676C152.309 36.0156 152.45 35.4131 152.902 35.1218C155.774 33.3141 170.517 32.4806 194.459 31.3357C212.215 30.482 232.341 29.5179 235.625 27.8207C236.107 27.5696 236.689 27.7604 236.94 28.2425C237.191 28.7245 237 29.307 236.518 29.5581C232.853 31.4461 214.243 32.34 194.549 33.284C176.754 34.1376 156.588 35.1017 153.946 36.7688C153.786 36.8693 153.605 36.9195 153.424 36.9195Z" fill="#5E6E63"/>
<path d="M155.975 175.681C155.724 175.681 155.473 175.601 155.272 175.45C154.961 175.229 154.78 174.858 154.78 174.476V128.771C154.78 127.466 155.473 126.291 156.578 125.698C163.347 122.083 184.929 121.46 203.97 120.918C217.367 120.536 230.021 120.164 234.942 118.829C235.444 118.688 235.967 118.799 236.378 119.11C236.8 119.431 237.031 119.913 237.031 120.446V137.237C237.031 137.78 236.589 138.211 236.057 138.211C235.525 138.211 235.083 137.77 235.083 137.237V120.817C229.74 122.143 217.799 122.484 204.03 122.876C185.2 123.418 163.859 124.031 157.502 127.435C157.03 127.687 156.729 128.209 156.729 128.791V173.512C164.964 171.564 193.917 170.047 198.497 170.369C199.039 170.409 199.441 170.871 199.401 171.413C199.36 171.955 198.888 172.357 198.356 172.317C193.746 171.996 162.523 173.683 156.327 175.641C156.206 175.681 156.086 175.701 155.965 175.701L155.975 175.681Z" fill="#5E6E63"/>
<path d="M271.779 16.4015C271.769 15.7085 271.217 15.1461 270.524 15.1461H270.514C269.821 15.1461 269.258 15.7085 269.268 16.4015L269.489 205.95H139.023C142.96 200.386 164.351 200.004 180.289 199.713C188.243 199.573 195.343 199.442 199.993 198.769C200.033 198.769 200.063 198.769 200.103 198.769C217.287 197.454 231.879 186.728 242.303 167.727C250.659 152.492 253.581 137.257 254.003 134.837C254.043 134.636 254.063 134.515 254.063 134.505C254.485 132.316 254.686 129.895 254.686 127.184V4.11909C254.696 3.15497 254.224 2.26116 253.441 1.71885C252.647 1.17654 251.643 1.05602 250.749 1.40752C242.072 4.83213 217.086 7.19219 192.933 9.47191C161.378 12.4446 141.172 14.5938 135.93 18.1891C135.779 18.0485 135.608 17.9179 135.438 17.8075C125.907 11.5508 99.7856 9.78324 74.5278 8.06592C52.2629 6.55949 29.2548 5.00285 21.582 0.342982C20.8389 -0.0989025 19.935 -0.118988 19.1818 0.312854C18.4186 0.744695 17.9465 1.54812 17.9465 2.42185V187.772C17.9465 189.249 18.7399 190.594 20.0254 191.297C28.7426 196.048 55.0548 198.006 80.5033 199.894C100.971 201.421 122.071 202.987 131.742 205.95H2.51071V16.4015C2.51071 15.7085 1.94831 15.1461 1.25535 15.1461C0.562398 15.1461 0 15.7085 0 16.4015V207.205C0 207.898 0.562398 208.461 1.25535 208.461H270.745C271.076 208.461 271.397 208.32 271.628 208.089C271.869 207.848 272 207.537 272 207.195L271.779 16.4015ZM240.104 166.512C231.688 181.857 220.932 191.358 208.067 194.853C211.15 191.86 214.264 187.22 216.363 182.209C218.863 176.263 222.147 164.573 216.272 152.723C228.394 157.011 240.405 154.42 248.45 145.753C248.59 145.602 248.731 145.442 248.871 145.281C247.094 151.216 244.302 158.849 240.104 166.512ZM135.829 204.825C127.825 200.898 104.927 199.191 80.6941 197.393C55.5067 195.515 29.4657 193.577 21.2305 189.088C20.7485 188.827 20.4572 188.325 20.4572 187.772L20.407 2.57249C28.7125 7.48343 50.887 8.97981 74.3571 10.5766C99.2935 12.2638 125.083 14.0113 134.062 19.9064C134.484 20.1876 134.755 20.6998 134.755 21.2522L135.9 204.775L135.829 204.825ZM137.265 21.2421C137.265 20.9408 137.235 20.6496 137.165 20.3684C140.79 16.9036 169.784 14.172 193.164 11.9726C217.498 9.67277 242.665 7.30266 251.673 3.7475C251.834 3.68724 251.955 3.7475 252.015 3.78767C252.075 3.82784 252.175 3.91823 252.175 4.10904V127.174C252.175 134.806 250.508 139.848 246.612 144.046C243.057 147.882 233.034 156.147 216.845 150.252C215.911 149.921 214.896 150.182 214.244 150.925C213.591 151.658 213.45 152.703 213.892 153.576C219.496 164.624 216.403 175.651 214.053 181.234C210.779 189.038 205.617 194.702 202.514 195.686C198.798 196.871 189.779 197.032 180.239 197.203C163.568 197.504 145.039 197.835 138.4 203.098L137.265 21.2421Z" fill="#5E6E63"/>
</svg>
