<svg xmlns="http://www.w3.org/2000/svg" width="97" height="115" fill="none" viewBox="0 0 97 115">
  <path fill="#A67875" d="M16.084 84.874v22.76h-3.71v-2.182c-1.183 1.531-3.083 2.492-5.204 2.492-4.021 0-7.17-3.49-7.17-8.104 0-4.614 3.178-8.104 7.103-8.104 2.18 0 4.147 1.057 5.27 2.713l.075-8.836 3.636-.732v-.007Zm-3.71 19.27v-8.415c-.902-1.775-2.403-2.87-4.08-2.87-2.647 0-4.458 2.81-4.458 6.988 0 4.178 1.811 6.988 4.553 6.988 1.656 0 3.12-1.028 3.992-2.684l-.008-.007Zm22.07.525h.717c-.968 1.967-3.555 3.276-6.482 3.276-5.145 0-8.76-3.528-8.76-8.105s3.615-8.104 8.14-8.104c4.523 0 7.576 3.335 7.576 7.705H23.756v.03c0 4.954 2.18 7.705 5.832 7.705 2.055 0 3.962-.969 4.864-2.492l-.008-.015Zm-10.688-5.864h8.294c-.097-3.964-1.62-6.455-3.992-6.455-2.373 0-4.117 2.617-4.302 6.455Zm14.466 4.777h.621c0 2.085 2.306 3.682 5.115 3.682 2.336 0 3.925-.968 3.925-2.433 0-1.464-1.715-2.307-4.08-3.364-2.092-.932-5.359-2.181-5.359-5.235 0-2.714 2.491-4.489 6.076-4.489 3.053 0 5.455 1.745 5.455 4.023h-.658c0-1.871-1.87-3.335-4.398-3.335-2.21 0-3.77.998-3.77 2.433 0 1.56 1.745 2.336 4.08 3.334 2.336.999 5.33 2.152 5.33 5.177 0 2.713-2.306 4.584-6.172 4.584-3.43 0-6.172-1.9-6.172-4.362l.007-.015Zm15.522-16.091c0-1.22.931-2.093 2.18-2.093 1.25 0 2.056.873 2.056 2.093s-.873 2.122-2.055 2.122c-1.25 0-2.18-.902-2.18-2.122Zm.281 5.147 3.71-.747v15.743h-3.71V92.638Zm23.425-.74.073 16.667c0 3.557-3.333 6.234-7.946 6.234-3.74 0-6.667-2.026-6.667-4.681h.658c0 2.181 2.247 3.838 5.019 3.838 3.053 0 5.233-1.901 5.233-4.4v-4.148c-1.183 1.53-3.12 2.529-5.233 2.529-4.021 0-7.17-3.49-7.17-8.105 0-4.614 3.178-8.104 7.103-8.104 2.21 0 4.177 1.057 5.3 2.773v-1.87l3.637-.733h-.008Zm-3.637 12.179V95.78c-.902-1.811-2.432-2.928-4.117-2.928-2.647 0-4.457 2.81-4.457 6.988 0 4.178 1.81 6.988 4.553 6.988 1.655 0 3.148-1.058 4.02-2.744v-.007ZM97 96.971v10.663h-3.71V96.099c0-1.775-1.309-3.12-3.12-3.12-1.81 0-3.555 1.249-4.36 3.053v11.602h-3.711V92.638l3.71-.747v2.965c1.094-1.84 3.275-3.12 5.707-3.12 3.178 0 5.484 2.248 5.484 5.235ZM51.157 74.366 34.01 49.728c-2.343.318-4.694.532-7.251.532H5.44v23.944a.741.741 0 0 1-.739.739H.74a.741.741 0 0 1-.739-.74V2.234A2.213 2.213 0 0 1 2.217.015h24.548c18.76 0 30.069 9.383 30.069 25.17 0 11.839-6.394 20.054-17.489 23.36l17.822 24.963a.74.74 0 0 1-.6 1.169h-4.796a.737.737 0 0 1-.606-.318l-.008.007Zm-24.4-28.905c15.996 0 24.526-7.468 24.526-20.268S42.753 4.925 26.765 4.925H7.658c-1.227 0-2.218.99-2.218 2.218v38.31h21.325l-.007.008ZM57.019 4.17V.74c0-.407.332-.74.739-.74h37.024C96.01 0 97 .99 97 2.218v71.978c0 .407-.333.74-.74.74H92.3a.742.742 0 0 1-.74-.74V50.312H72.09a.741.741 0 0 1-.74-.74v-3.43c0-.407.334-.74.74-.74h19.47V7.121a2.215 2.215 0 0 0-2.218-2.218H57.758a.741.741 0 0 1-.74-.74v.007Z"/>
</svg>
