<svg width="184" height="190" viewBox="0 0 184 250" fill="none" xmlns="http://www.w3.org/2000/svg">
<path d="M0.509766 83.67V201.4H2.51977V83.67H0.509766ZM120.84 85.47L120.53 85.15V86.81L120.84 86.51L121.36 86.01L120.84 85.47ZM122.1 50.5H120.53V51.5H122.1C122.36 51.5 122.57 51.28 122.57 51C122.57 50.72 122.36 50.5 122.1 50.5ZM120.53 241.71C120.53 244.9 117.94 247.49 114.75 247.49H8.29977C5.10977 247.49 2.51977 244.9 2.51977 241.71V230.8C1.09977 230.89 0.0697656 231.14 0.00976562 231.44V241.71C0.00976562 246.28 3.72977 250 8.29977 250H114.75C119.32 250 123.04 246.28 123.04 241.71V204.38H120.53V241.71Z" fill="#5E6E63"/>
<path d="M23.5601 44.9796C17.5101 44.9796 12.6001 40.0596 12.6001 34.0196C12.6001 27.9796 17.5201 23.0596 23.5601 23.0596C29.6001 23.0596 34.5201 27.9796 34.5201 34.0196C34.5201 40.0596 29.6001 44.9796 23.5601 44.9796ZM23.5601 24.1196C18.1001 24.1196 13.6601 28.5596 13.6601 34.0196C13.6601 39.4796 18.1001 43.9196 23.5601 43.9196C29.0201 43.9196 33.4601 39.4796 33.4601 34.0196C33.4601 28.5596 29.0201 24.1196 23.5601 24.1196Z" fill="#5E6E63"/>
<path d="M55.2598 44.9796C49.2098 44.9796 44.2998 40.0596 44.2998 34.0196C44.2998 27.9796 49.2198 23.0596 55.2598 23.0596C61.2998 23.0596 66.2198 27.9796 66.2198 34.0196C66.2198 40.0596 61.2998 44.9796 55.2598 44.9796ZM55.2598 24.1196C49.7998 24.1196 45.3598 28.5596 45.3598 34.0196C45.3598 39.4796 49.7998 43.9196 55.2598 43.9196C60.7198 43.9196 65.1598 39.4796 65.1598 34.0196C65.1598 28.5596 60.7198 24.1196 55.2598 24.1196Z" fill="#5E6E63"/>
<path d="M86.9502 44.9796C80.9002 44.9796 75.9902 40.0596 75.9902 34.0196C75.9902 27.9796 80.9102 23.0596 86.9502 23.0596C92.9902 23.0596 97.9102 27.9796 97.9102 34.0196C97.9102 40.0596 92.9902 44.9796 86.9502 44.9796ZM86.9502 24.1196C81.4902 24.1196 77.0502 28.5596 77.0502 34.0196C77.0502 39.4796 81.4902 43.9196 86.9502 43.9196C92.4102 43.9196 96.8502 39.4796 96.8502 34.0196C96.8502 28.5596 92.4102 24.1196 86.9502 24.1196Z" fill="#5E6E63"/>
<path d="M33.8402 51.6498H13.4202C13.0402 51.6498 12.7402 51.3898 12.7402 51.0798C12.7402 50.7698 13.0502 50.5098 13.4202 50.5098H33.8502C34.2302 50.5098 34.5302 50.7698 34.5302 51.0798C34.5302 51.3898 34.2202 51.6498 33.8502 51.6498H33.8402Z" fill="#5E6E63"/>
<path d="M53.8102 213.88H10.6102C9.81016 213.88 9.16016 213.56 9.16016 213.16C9.16016 212.76 9.81016 212.44 10.6102 212.44H53.8102C54.6102 212.44 55.2602 212.76 55.2602 213.16C55.2602 213.56 54.6102 213.88 53.8102 213.88Z" fill="#5E6E63"/>
<path d="M70.9199 221.11H11.1699C10.0599 221.11 9.16992 220.79 9.16992 220.39C9.16992 219.99 10.0599 219.67 11.1699 219.67H70.9199C72.0299 219.67 72.9199 219.99 72.9199 220.39C72.9199 220.79 72.0299 221.11 70.9199 221.11Z" fill="#5E6E63"/>
<path d="M123.04 231.47C123.04 231.78 122 232.05 120.53 232.15C120.11 232.18 119.66 232.2 119.18 232.2H3.86C3.39 232.2 2.93 232.18 2.52 232.15C1.12 232.06 0.1 231.81 0.01 231.51C0 231.5 0 231.48 0 231.47C0 231.46 0 231.45 0.01 231.44C0.07 231.14 1.1 230.89 2.52 230.8C2.93 230.77 3.39 230.75 3.86 230.75H119.18C119.66 230.75 120.11 230.77 120.53 230.8C122 230.9 123.04 231.16 123.04 231.47Z" fill="#5E6E63"/>
<path d="M65.5402 51.5H45.1102C44.7302 51.5 44.4302 51.28 44.4302 51C44.4302 50.72 44.7402 50.5 45.1102 50.5H65.5402C65.9202 50.5 66.2202 50.72 66.2202 51C66.2202 51.28 65.9102 51.5 65.5402 51.5Z" fill="#5E6E63"/>
<path d="M97.2399 51.6498H76.8099C76.4299 51.6498 76.1299 51.3898 76.1299 51.0798C76.1299 50.7698 76.4399 50.5098 76.8099 50.5098H97.2399C97.6199 50.5098 97.9199 50.7698 97.9199 51.0798C97.9199 51.3898 97.6099 51.6498 97.2399 51.6498Z" fill="#5E6E63"/>
<path d="M120.84 85.4699V86.5099L121.36 86.0099L120.84 85.4699ZM120.53 85.1499V83.6699H0.509766V201.4H80.5098V199.6H2.30977V85.4699H120.84L120.53 85.1499Z" fill="#5E6E63"/>
<path d="M182.07 131.79H123.04V8.3C123.04 3.72 119.32 0 114.75 0H8.29977C3.72977 0 0.00976562 3.72 0.00976562 8.3V231.44C0.0697656 231.14 1.09977 230.89 2.51977 230.8V201.4H0.509766V83.67H2.51977V8.3C2.51977 5.11 5.10977 2.51 8.29977 2.51H114.75C117.94 2.51 120.53 5.11 120.53 8.3V23.23C119.92 23.12 119.29 23.06 118.65 23.06C112.61 23.06 107.69 27.98 107.69 34.02C107.69 40.06 112.61 44.99 118.65 44.99C119.29 44.99 119.92 44.93 120.53 44.83V50.5H122.1C122.36 50.5 122.57 50.72 122.57 51C122.57 51.28 122.36 51.5 122.1 51.5H120.53V85.15L120.84 85.47L121.36 86.01L120.84 86.51L120.53 86.81V131.79H81.5098C80.9598 131.79 80.5098 132.24 80.5098 132.79V203.38C80.5098 203.93 80.9598 204.38 81.5098 204.38H95.9298V228.2C95.9298 228.62 96.1898 228.99 96.5798 229.14C96.6898 229.18 96.8098 229.2 96.9298 229.2C97.2098 229.2 97.4898 229.08 97.6798 228.86L119.29 204.38H182.07C182.63 204.38 183.07 203.93 183.07 203.38V132.79C183.07 132.24 182.63 131.79 182.07 131.79ZM120.53 43.74C119.92 43.86 119.29 43.92 118.65 43.92C113.2 43.92 108.75 39.48 108.75 34.02C108.75 28.56 113.2 24.12 118.65 24.12C119.29 24.12 119.92 24.18 120.53 24.3V43.74ZM181.07 202.38H118.84C118.57 202.38 118.29 202.49 118.09 202.72L116.62 204.38L97.9298 225.56V203.38C97.9298 202.83 97.4798 202.38 96.9298 202.38H82.5098V133.79H181.07V202.38Z" fill="#5E6E63"/>
<path d="M66.7698 74.8004H29.2998C28.8998 74.8004 28.5698 74.4704 28.5698 74.0704V70.0903C28.5698 69.6903 28.8998 69.3604 29.2998 69.3604H66.7698C67.1698 69.3604 67.4998 69.6903 67.4998 70.0903V74.0704C67.4998 74.4704 67.1698 74.8004 66.7698 74.8004ZM29.5698 73.8004H66.4998V70.3604H29.5698V73.8004Z" fill="#5E6E63"/>
<path d="M15.4998 80.4899C20.1446 80.4899 23.9098 76.7246 23.9098 72.0799C23.9098 67.4352 20.1446 63.6699 15.4998 63.6699C10.8551 63.6699 7.08984 67.4352 7.08984 72.0799C7.08984 76.7246 10.8551 80.4899 15.4998 80.4899Z" fill="#5E6E63"/>
<path d="M121.36 86.0097L120.84 86.5097L120.53 86.8097L62.66 142.54L61.58 143.58L3.39004 199.6L2.83004 200.14L2.52004 199.82L2.31004 199.6L1.79004 199.06L2.31004 198.56L2.52004 198.36L60.49 142.54L61.58 141.49L119.76 85.4697L120.32 84.9297L120.53 85.1497L120.84 85.4697L121.36 86.0097Z" fill="#5E6E63"/>
<path d="M80.51 159.73V161.81L61.58 143.58L60.49 142.54L2.52004 86.7097L2.31004 86.5097L1.79004 86.0097L2.31004 85.4697L2.52004 85.2497L2.83004 84.9297L3.39004 85.4697L61.58 141.49L62.66 142.54L80.51 159.73Z" fill="#5E6E63"/>
<path d="M122.57 51C122.57 51.28 122.36 51.5 122.1 51.5H108.22C107.96 51.5 107.75 51.28 107.75 51C107.75 50.72 107.96 50.5 108.22 50.5H122.1C122.36 50.5 122.57 50.72 122.57 51Z" fill="#5E6E63"/>
<path d="M131.79 185.9C131.61 185.9 131.42 185.83 131.28 185.7L113.6 169.19C111.38 167.12 110.11 164.19 110.11 161.15V160.57C110.11 155.51 113.73 151.24 118.72 150.4C121.96 149.86 125.32 150.9 127.7 153.18L131.72 157.36L135.89 153.19C138.28 150.9 141.64 149.86 144.88 150.4C149.87 151.23 153.49 155.51 153.49 160.57V161.15C153.49 164.19 152.22 167.12 150 169.19L132.32 185.7C132.18 185.83 131.99 185.9 131.81 185.9H131.79ZM120.42 151.77C119.94 151.77 119.45 151.81 118.96 151.89C114.7 152.6 111.61 156.25 111.61 160.58V161.16C111.61 163.79 112.71 166.32 114.63 168.1L131.8 184.13L148.97 168.1C150.88 166.32 151.98 163.79 151.98 161.16V160.58C151.98 156.26 148.89 152.6 144.63 151.89C141.85 151.43 138.98 152.32 136.94 154.27L132.24 158.97C132.1 159.11 131.91 159.21 131.7 159.19C131.5 159.19 131.31 159.11 131.17 158.96L126.64 154.25C124.97 152.65 122.72 151.77 120.43 151.77H120.42Z" fill="#5E6E63"/>
<path d="M35.2301 13.89H11.9001C11.4401 13.89 11.0601 13.52 11.0601 13.05C11.0601 12.58 11.4301 12.21 11.9001 12.21H35.2401C35.7001 12.21 36.0801 12.58 36.0801 13.05C36.0801 13.52 35.7101 13.89 35.2401 13.89H35.2301Z" fill="#5E6E63"/>
</svg>
