<svg width="273" height="210" viewBox="0 0 273 228" fill="none" xmlns="http://www.w3.org/2000/svg">
<path d="M229.895 21.4697H253.226" stroke="#5E6E63" stroke-miterlimit="10" stroke-linecap="round"/>
<path d="M20.6123 21.4697H81.1295" stroke="#5E6E63" stroke-miterlimit="10" stroke-linecap="round"/>
<path d="M199.637 21.4697H222.968" stroke="#5E6E63" stroke-miterlimit="10" stroke-linecap="round"/>
<path d="M169.378 21.4697H192.709" stroke="#5E6E63" stroke-miterlimit="10" stroke-linecap="round"/>
<path d="M20.6123 53.5322H132.847" stroke="#5E6E63" stroke-miterlimit="10" stroke-linecap="round"/>
<path d="M20.6123 63.5635H132.847" stroke="#5E6E63" stroke-miterlimit="10" stroke-linecap="round"/>
<path d="M71.8444 82.8828H23.9519C23.5683 82.8828 23.2524 83.2093 23.2524 83.5808V144.273C23.2524 144.668 23.5796 144.971 23.9519 144.971H71.8557C72.2506 144.971 72.5552 144.668 72.5552 144.273V83.5808C72.5552 83.198 72.2506 82.8828 71.8557 82.8828H71.8444ZM71.1449 142.202L48.7951 113.933L71.1449 85.6636V142.202ZM70.4454 84.2901L47.9151 112.796L25.3735 84.2901H70.4454ZM24.6627 85.6523L47.0238 113.933L24.6627 142.213V85.6523ZM25.3848 143.575L47.9264 115.07L70.4567 143.575H25.3735H25.3848Z" fill="#5E6E63"/>
<path d="M131.188 82.8828H83.2845C82.9009 82.8828 82.585 83.2093 82.585 83.5808V144.273C82.585 144.668 82.9121 144.971 83.2845 144.971H131.188C131.583 144.971 131.888 144.668 131.888 144.273V83.5808C131.888 83.198 131.583 82.8828 131.188 82.8828ZM130.489 142.213L108.139 113.933L130.489 85.6523V142.213ZM129.789 84.2901L107.248 112.796L84.7173 84.2901H129.789ZM84.0065 85.6523L106.368 113.933L84.0065 142.213V85.6523ZM84.7286 143.575L107.259 115.07L129.801 143.575H84.7286Z" fill="#5E6E63"/>
<path d="M190.543 82.8828H142.639C142.256 82.8828 141.94 83.2093 141.94 83.5808V144.949C141.94 145.332 142.267 145.647 142.639 145.647H190.543C190.938 145.647 191.243 145.32 191.243 144.949V83.5808C191.243 83.198 190.938 82.8828 190.543 82.8828ZM189.133 84.2901L166.603 113.122L144.061 84.2901H189.133ZM143.35 85.6636L165.711 114.271L143.35 142.877V85.6636ZM144.072 144.251L166.614 115.419L189.144 144.251H144.072ZM189.844 142.855L167.494 114.259L189.844 85.6636V142.844V142.855Z" fill="#5E6E63"/>
<path d="M249.887 82.8828H201.983C201.588 82.8828 201.284 83.2093 201.284 83.5808V144.273C201.284 144.668 201.588 144.971 201.983 144.971H249.887C250.282 144.971 250.586 144.668 250.586 144.273V83.5808C250.586 83.198 250.282 82.8828 249.887 82.8828ZM249.187 142.213L226.826 113.933L249.187 85.6523V142.213ZM248.488 84.2901L225.946 112.807L203.405 84.2901H248.488ZM202.705 85.6523L225.066 113.933L202.705 142.213V85.6523ZM203.405 143.575L225.946 115.059L248.488 143.575H203.405Z" fill="#5E6E63"/>
<path d="M270.59 0H1.41026C0.631797 0 0 0.630456 0 1.40727V168.974C0 169.75 0.631797 170.381 1.41026 170.381H116.668L96.7778 225.185H58.3171C57.5387 225.185 56.9069 225.805 56.9069 226.593C56.9069 227.381 57.5387 228 58.3171 228H212.487C213.265 228 213.897 227.37 213.897 226.593C213.897 225.816 213.265 225.185 212.487 225.185H175.256L155.366 170.381H270.601C271.391 170.381 272.011 169.75 272.011 168.974V1.40727C272.011 0.630456 271.391 0 270.601 0H270.59ZM172.244 225.185H99.745L119.635 170.381H152.342L172.232 225.185H172.244ZM269.179 167.566H2.82052V2.81454H269.191V167.578L269.179 167.566Z" fill="#5E6E63"/>
</svg>
